<?xml version="1.0" encoding="UTF-8" standalone="no"?>
<svg width="160" height="160" xmlns="http://www.w3.org/2000/svg" xmlns:svg="http://www.w3.org/2000/svg">
 <g fill="#000000" stroke-width="0" id="blacks_group">
  <title>Blacks</title>
  <rect id="blacks_1"  height="10" width="60" y="0"   x="50"  />
  <rect id="blacks_2"  height="10" width="30" y="10"  x="30"  />
  <rect id="blacks_3"  height="10" width="20" y="20"  x="20"  />
  <rect id="blacks_4"  height="10" width="20" y="30"  x="10"  />
  <rect id="blacks_5"  height="20" width="10" y="40"  x="10"  />
  <rect id="blacks_6"  height="70" width="10" y="50"  x="0"   />
  <rect id="blacks_7"  height="20" width="20" y="110" x="10"  />
  <rect id="blacks_8"  height="20" width="10" y="130" x="20"  />
  <rect id="blacks_9"  height="20" width="10" y="140" x="30"  />
  <rect id="blacks_10" height="10" width="80" y="150" x="40"  />
  <rect id="blacks_11" height="20" width="10" y="100" x="30"  />
  <rect id="blacks_12" height="20" width="10" y="110" x="60"  />
  <rect id="blacks_13" height="10" width="80" y="100" x="40"  />
  <rect id="blacks_14" height="20" width="10" y="100" x="120" />
  <rect id="blacks_15" height="20" width="10" y="110" x="90"  />
  <rect id="blacks_16" height="20" width="10" y="140" x="120" />
  <rect id="blacks_17" height="20" width="10" y="130" x="130" />
  <rect id="blacks_18" height="20" width="20" y="110" x="130" />
  <rect id="blacks_19" height="70" width="10" y="50"  x="150" />
  <rect id="blacks_20" height="20" width="10" y="40"  x="140" />
  <rect id="blacks_21" height="10" width="20" y="30"  x="130" />
  <rect id="blacks_22" height="10" width="20" y="20"  x="120" />
  <rect id="blacks_23" height="10" width="30" y="10"  x="100" />
 </g>
 <g fill="#0e69ea" stroke-width="0" id="stains_group">
  <title>Stains</title>
  <rect id="stains_1"  height="20" width="20" x="10"  y="90" />
  <rect id="stains_2"  height="20" width="10" x="30"  y="80" />
  <rect id="stains_3"  height="10" width="20" x="40"  y="90" />
  <rect id="stains_4"  height="20" width="10" x="30"  y="30" />
  <rect id="stains_5"  height="30" width="10" x="40"  y="60" />
  <rect id="stains_6"  height="20" width="20" x="40"  y="40" />
  <rect id="stains_7"  height="20" width="40" x="60"  y="30" />
  <rect id="stains_8"  height="20" width="20" x="70"  y="10" />
  <rect id="stains_9"  height="20" width="20" x="100" y="40" />
  <rect id="stains_10" height="20" width="10" x="120" y="80" />
  <rect id="stains_11" height="20" width="20" x="130" y="90" />
  <rect id="stains_12" height="30" width="10" x="110" y="60" />
  <rect id="stains_13" height="10" width="20" x="100" y="90" />
  <rect id="stains_14" height="20" width="10" x="120" y="30" />
 </g>
</svg>
