<?xml version="1.0" encoding="UTF-8" standalone="no"?>
<svg width="100%" height="100%" viewBox="0 0 16 16" xmlns="http://www.w3.org/2000/svg" xmlns:svg="http://www.w3.org/2000/svg">
  <g id="borders">
    <rect id="borders_1" x="5" y="0" width="6" height="1"/>
    <rect id="borders_2" x="3" y="1" width="3" height="1"/>
    <rect id="borders_3" x="2" y="2" width="2" height="1"/>
    <rect id="borders_4" x="1" y="3" width="2" height="1"/>
    <rect id="borders_5" x="1" y="4" width="1" height="2"/>
    <rect id="borders_6" x="0" y="5" width="1" height="7"/>
    <rect id="borders_7" x="1" y="11" width="2" height="2"/>
    <rect id="borders_8" x="2" y="13" width="1" height="2"/>
    <rect id="borders_9" x="3" y="14" width="1" height="2"/>
    <rect id="borders_10" x="4" y="15" width="8" height="1"/>
    <rect id="borders_11" x="3" y="10" width="1" height="2"/>
    <rect id="borders_12" x="6" y="11" width="1" height="2"/>
    <rect id="borders_13" x="4" y="10" width="8" height="1"/>
    <rect id="borders_14" x="12" y="10" width="1" height="2"/>
    <rect id="borders_15" x="9" y="11" width="1" height="2"/>
    <rect id="borders_16" x="12" y="14" width="1" height="2"/>
    <rect id="borders_17" x="13" y="13" width="1" height="2"/>
    <rect id="borders_18" x="13" y="11" width="2" height="2"/>
    <rect id="borders_19" x="15" y="5" width="1" height="7"/>
    <rect id="borders_20" x="14" y="4" width="1" height="2"/>
    <rect id="borders_21" x="13" y="3" width="2" height="1"/>
    <rect id="borders_22" x="12" y="2" width="2" height="1"/>
    <rect id="borders_23" x="10" y="1" width="3" height="1"/>
  </g>
  <g id="faces">
    <rect id="face_1" x="10" y="11" width="2" height="4" style="fill:white;"/>
    <rect id="face_2" x="7" y="11" width="2" height="4" style="fill:white;"/>
    <rect id="face_3" x="12" y="12" width="1" height="2" style="fill:white;"/>
    <rect id="face_4" x="9" y="13" width="1" height="2" style="fill:white;"/>
    <rect id="face_5" x="6" y="13" width="1" height="2" style="fill:white;"/>
    <rect id="face_6" x="3" y="12" width="1" height="2" style="fill:white;"/>
    <rect id="face_7" x="4" y="11" width="2" height="4" style="fill:white;"/>
  </g>
  <g id="stripes">
    <g id="yellows">
      <rect id="yellow_1" x="1" y="8" width="1" height="2" style="fill:yellow;"/>
      <rect id="yellow_2" x="2" y="7" width="2" height="2" style="fill:yellow;"/>
      <rect id="yellow_3" x="4" y="6" width="8" height="2" style="fill:yellow;"/>
      <rect id="yellow_4" x="12" y="7" width="2" height="2" style="fill:yellow;"/>
      <rect id="yellow_5" x="14" y="8" width="1" height="2" style="fill:yellow;"/>
      <rect id="yellow_6" x="2" y="4" width="2" height="1" style="fill:yellow;"/>
      <rect id="yellow_7" x="3" y="3" width="10" height="1" style="fill:yellow;"/>
      <rect id="yellow_8" x="5" y="2" width="6" height="1" style="fill:yellow;"/>
      <rect id="yellow_9" x="12" y="4" width="2" height="1" style="fill:yellow;"/>
    </g>
    <g id="browns">
      <rect id="brown_1" x="1" y="10" width="2" height="1" style="fill:brown;"/>
      <rect id="brown_2" x="2" y="9" width="12" height="1" style="fill:brown;"/>
      <rect id="brown_3" x="4" y="8" width="8" height="1" style="fill:brown;"/>
      <rect id="brown_4" x="13" y="10" width="2" height="1" style="fill:brown;"/>
      <rect id="brown_5" x="1" y="7" width="1" height="1" style="fill:brown;"/>
      <rect id="brown_6" x="1" y="6" width="3" height="1" style="fill:brown;"/>
      <rect id="brown_7" x="2" y="5" width="12" height="1" style="fill:brown;"/>
      <rect id="brown_8" x="4" y="4" width="8" height="1" style="fill:brown;"/>
      <rect id="brown_9" x="12" y="6" width="3" height="1" style="fill:brown;"/>
      <rect id="brown_10" x="14" y="7" width="1" height="1" style="fill:brown;"/>
      <rect id="brown_11" x="4" y="2" width="1" height="1" style="fill:brown;"/>
      <rect id="brown_12" x="6" y="1" width="4" height="1" style="fill:brown;"/>
      <rect id="brown_13" x="11" y="2" width="1" height="1" style="fill:brown;"/>
    </g>
  </g>
</svg>
